<svg width="395" height="100" viewBox="0 0 395 100" fill="none" xmlns="http://www.w3.org/2000/svg">
<rect width="100" height="100" rx="50" fill="black"/>
<path d="M49.5754 86.768C46.6634 86.768 44.1674 86.096 42.0874 84.752C40.0394 83.408 38.4714 81.584 37.3834 79.28C36.2954 76.976 35.7514 74.384 35.7514 71.504V15.44H46.1194V71.504C46.1194 72.88 46.3914 74.096 46.9354 75.152C47.4794 76.176 48.3594 76.688 49.5754 76.688C50.8554 76.688 51.7514 76.176 52.2634 75.152C52.7754 74.096 53.0314 72.88 53.0314 71.504V15.44H63.3994V71.504C63.3994 74.384 62.8394 76.976 61.7194 79.28C60.6314 81.584 59.0474 83.408 56.9674 84.752C54.9194 86.096 52.4554 86.768 49.5754 86.768Z" fill="white"/>
<path d="M126.216 26.88V53.056C126.216 55.488 126.77 57.3653 127.88 58.688C129.032 60.0107 130.76 60.672 133.064 60.672C135.368 60.672 137.096 60.0107 138.248 58.688C139.442 57.3227 140.04 55.4453 140.04 53.056V26.88H152.584V53.056C152.584 57.1947 151.709 60.736 149.96 63.68C148.21 66.5813 145.821 68.7787 142.792 70.272C139.805 71.7227 136.477 72.448 132.808 72.448C129.138 72.448 125.853 71.7227 122.952 70.272C120.093 68.7787 117.832 66.5813 116.168 63.68C114.546 60.7787 113.736 57.2373 113.736 53.056V26.88H126.216ZM180.674 61.312V72H175.234C166.061 72 161.474 67.456 161.474 58.368V46.528H157.058V36.096H161.474V27.392H174.082V36.096H180.61V46.528H174.082V58.56C174.082 59.5413 174.296 60.2453 174.722 60.672C175.192 61.0987 175.96 61.312 177.026 61.312H180.674ZM192.764 32.768C190.545 32.768 188.753 32.1707 187.388 30.976C186.065 29.7387 185.404 28.2027 185.404 26.368C185.404 24.4907 186.065 22.9333 187.388 21.696C188.753 20.4587 190.545 19.84 192.764 19.84C194.94 19.84 196.689 20.4587 198.012 21.696C199.377 22.9333 200.06 24.4907 200.06 26.368C200.06 28.2027 199.377 29.7387 198.012 30.976C196.689 32.1707 194.94 32.768 192.764 32.768ZM198.972 36.096V72H186.428V36.096H198.972ZM218.659 24.64V72H206.115V24.64H218.659ZM232.139 32.768C229.92 32.768 228.128 32.1707 226.763 30.976C225.44 29.7387 224.779 28.2027 224.779 26.368C224.779 24.4907 225.44 22.9333 226.763 21.696C228.128 20.4587 229.92 19.84 232.139 19.84C234.315 19.84 236.064 20.4587 237.387 21.696C238.752 22.9333 239.435 24.4907 239.435 26.368C239.435 28.2027 238.752 29.7387 237.387 30.976C236.064 32.1707 234.315 32.768 232.139 32.768ZM238.347 36.096V72H225.803V36.096H238.347ZM257.394 61.568H272.69V72H243.57V62.08L257.842 46.528H243.698V36.096H272.178V46.016L257.394 61.568ZM312.232 53.632C312.232 54.6133 312.168 55.5947 312.04 56.576H288.296C288.424 58.5387 288.957 60.0107 289.896 60.992C290.877 61.9307 292.114 62.4 293.608 62.4C295.698 62.4 297.192 61.4613 298.088 59.584H311.464C310.909 62.0587 309.821 64.2773 308.2 66.24C306.621 68.16 304.616 69.6747 302.184 70.784C299.752 71.8933 297.064 72.448 294.12 72.448C290.578 72.448 287.421 71.7013 284.648 70.208C281.917 68.7147 279.762 66.5813 278.184 63.808C276.648 61.0347 275.88 57.7707 275.88 54.016C275.88 50.2613 276.648 47.0187 278.184 44.288C279.72 41.5147 281.853 39.3813 284.584 37.888C287.357 36.3947 290.536 35.648 294.12 35.648C297.661 35.648 300.797 36.3733 303.528 37.824C306.258 39.2747 308.392 41.3653 309.928 44.096C311.464 46.784 312.232 49.9627 312.232 53.632ZM299.432 50.496C299.432 48.96 298.92 47.7653 297.896 46.912C296.872 46.016 295.592 45.568 294.056 45.568C292.52 45.568 291.261 45.9947 290.28 46.848C289.298 47.6587 288.658 48.8747 288.36 50.496H299.432ZM347.253 26.88V56.768C347.253 61.8453 345.867 65.728 343.093 68.416C340.363 71.104 336.587 72.448 331.765 72.448C326.645 72.448 322.549 71.0187 319.477 68.16C316.448 65.3013 314.933 61.184 314.933 55.808H327.349C327.392 59.3493 328.693 61.12 331.253 61.12C333.557 61.12 334.709 59.6693 334.709 56.768V26.88H347.253ZM352.692 54.016C352.692 50.304 353.354 47.0613 354.676 44.288C356.042 41.5147 357.876 39.3813 360.18 37.888C362.527 36.3947 365.13 35.648 367.988 35.648C370.463 35.648 372.596 36.1387 374.388 37.12C376.18 38.1013 377.567 39.424 378.548 41.088V36.096H391.092V72H378.548V67.008C377.567 68.672 376.159 69.9947 374.324 70.976C372.532 71.9573 370.42 72.448 367.988 72.448C365.13 72.448 362.527 71.7013 360.18 70.208C357.876 68.7147 356.042 66.5813 354.676 63.808C353.354 60.992 352.692 57.728 352.692 54.016ZM378.548 54.016C378.548 51.712 377.908 49.8987 376.628 48.576C375.391 47.2533 373.855 46.592 372.02 46.592C370.143 46.592 368.586 47.2533 367.348 48.576C366.111 49.856 365.492 51.6693 365.492 54.016C365.492 56.32 366.111 58.1547 367.348 59.52C368.586 60.8427 370.143 61.504 372.02 61.504C373.855 61.504 375.391 60.8427 376.628 59.52C377.908 58.1973 378.548 56.3627 378.548 54.016ZM381.044 27.392L365.044 33.664V25.152L381.044 17.92V27.392Z" fill="black"/>
</svg>
