<svg width="120" height="120" viewBox="0 0 120 120" fill="none" xmlns="http://www.w3.org/2000/svg">
<rect width="120" height="120" rx="60" fill="black"/>
<path d="M59.4902 104.96C55.8502 104.96 52.7302 104.12 50.1302 102.44C47.5702 100.76 45.6102 98.48 44.2502 95.6C42.8902 92.72 42.2102 89.48 42.2102 85.88V15.8H55.1702V85.88C55.1702 87.6 55.5102 89.12 56.1902 90.44C56.8702 91.72 57.9702 92.36 59.4902 92.36C61.0902 92.36 62.2102 91.72 62.8502 90.44C63.4902 89.12 63.8102 87.6 63.8102 85.88V15.8H76.7702V85.88C76.7702 89.48 76.0702 92.72 74.6702 95.6C73.3102 98.48 71.3302 100.76 68.7302 102.44C66.1702 104.12 63.0902 104.96 59.4902 104.96Z" fill="white"/>
</svg>
