<svg width="350" height="153" viewBox="0 0 350 153" fill="none" xmlns="http://www.w3.org/2000/svg">
<rect x="0.5" y="3.70135" width="349" height="148.799" fill="black" stroke="white"/>
<path d="M56.552 125.024C52.6693 125.024 49.3413 124.128 46.568 122.336C43.8373 120.544 41.7467 118.112 40.296 115.04C38.8453 111.968 38.12 108.512 38.12 104.672V29.92H51.944V104.672C51.944 106.507 52.3067 108.128 53.032 109.536C53.7573 110.901 54.9307 111.584 56.552 111.584C58.2587 111.584 59.4533 110.901 60.136 109.536C60.8187 108.128 61.16 106.507 61.16 104.672V29.92H74.984V104.672C74.984 108.512 74.2373 111.968 72.744 115.04C71.2933 118.112 69.1813 120.544 66.408 122.336C63.6773 124.128 60.392 125.024 56.552 125.024ZM102.141 125.024C98.0877 125.024 94.9943 124.128 92.861 122.336C90.7277 120.544 89.2557 117.984 88.445 114.656C87.677 111.328 87.293 107.36 87.293 102.752V65.632H80.765V53.984H87.293V36.704H100.221V53.984H109.117V65.632H100.221V104.608C100.221 107.339 100.626 109.365 101.437 110.688C102.248 111.968 103.57 112.608 105.405 112.608C106.216 112.608 106.92 112.544 107.517 112.416C108.157 112.288 108.669 112.139 109.053 111.968V123.808C108.2 124.149 107.261 124.427 106.237 124.64C105.256 124.896 103.89 125.024 102.141 125.024ZM113.59 124V53.984H126.518V124H113.59ZM113.59 42.848V29.92H126.518V42.848H113.59ZM134.215 124V29.92H147.143V124H134.215ZM154.84 124V53.984H167.768V124H154.84ZM154.84 42.848V29.92H167.768V42.848H154.84ZM174.825 124V113.504L192.617 65.76H177.641V53.984H206.313V64.48L188.521 112.224H206.313V124H174.825ZM228.7 125.024C223.537 125.024 219.463 123.253 216.476 119.712C213.532 116.128 212.06 111.755 212.06 106.592V71.392C212.06 65.9307 213.532 61.4933 216.476 58.08C219.42 54.6667 223.537 52.96 228.828 52.96C232.284 52.96 235.249 53.7493 237.724 55.328C240.241 56.9067 242.161 59.0613 243.484 61.792C244.807 64.48 245.468 67.552 245.468 71.008V91.36H224.092V106.592C224.092 108.341 224.476 109.963 225.244 111.456C226.055 112.907 227.249 113.632 228.828 113.632C230.492 113.632 231.665 112.949 232.348 111.584C233.073 110.219 233.436 108.555 233.436 106.592V98.912H245.468V106.976C245.468 112.395 243.996 116.768 241.052 120.096C238.151 123.381 234.033 125.024 228.7 125.024ZM224.092 81.248H233.436V71.392C233.436 69.472 233.095 67.808 232.412 66.4C231.772 64.9493 230.577 64.224 228.828 64.224C227.207 64.224 226.012 64.9707 225.244 66.464C224.476 67.9147 224.092 69.5573 224.092 71.392V81.248ZM248.768 124.896V111.328C249.365 111.413 249.813 111.456 250.112 111.456C252.032 111.456 253.525 110.859 254.592 109.664C255.659 108.427 256.192 106.677 256.192 104.416V29.92H270.016V106.592C270.016 110.645 269.269 114.037 267.776 116.768C266.325 119.499 264.192 121.547 261.376 122.912C258.56 124.277 255.147 124.96 251.136 124.96C250.752 124.96 250.368 124.96 249.984 124.96C249.6 124.96 249.195 124.939 248.768 124.896ZM288.373 125.024C285.386 125.024 282.805 123.509 280.629 120.48C278.453 117.451 277.365 112.821 277.365 106.592C277.365 100.576 278.645 95.7333 281.205 92.064C283.808 88.3947 287.69 85.216 292.853 82.528C294.474 81.6747 295.84 80.9067 296.949 80.224C298.058 79.5413 298.741 78.9013 298.997 78.304V70.624C298.997 68.8747 298.784 67.3813 298.357 66.144C297.973 64.864 296.992 64.224 295.413 64.224C293.962 64.224 292.981 64.9067 292.469 66.272C291.957 67.5947 291.701 69.2587 291.701 71.264V74.592H278.773V71.648C278.773 67.808 279.52 64.5013 281.013 61.728C282.549 58.912 284.618 56.7573 287.221 55.264C289.866 53.728 292.853 52.96 296.181 52.96C299.381 52.96 302.154 53.7067 304.501 55.2C306.848 56.6507 308.661 58.6773 309.941 61.28C311.264 63.84 311.925 66.784 311.925 70.112V111.84C311.925 114.955 312.01 117.387 312.181 119.136C312.352 120.843 312.565 122.464 312.821 124H300.149C299.594 123.317 299.253 122.315 299.125 120.992C299.04 119.669 298.997 118.795 298.997 118.368H298.101C297.034 120.331 295.669 121.931 294.005 123.168C292.384 124.405 290.506 125.024 288.373 125.024ZM293.621 112.352C295.114 112.352 296.373 111.84 297.397 110.816C298.464 109.792 298.997 108.683 298.997 107.488V90.848C295.882 92.1707 293.6 94.176 292.149 96.864C290.741 99.5093 290.037 102.496 290.037 105.824C290.037 107.275 290.314 108.725 290.869 110.176C291.424 111.627 292.341 112.352 293.621 112.352ZM289.397 45.664L297.973 34.144H311.413L299.381 45.664H289.397Z" fill="white"/>
</svg>
